<?xml version="1.0" standalone="no"?>
<!DOCTYPE svg PUBLIC "-//W3C//DTD SVG 20010904//EN"
 "http://www.w3.org/TR/2001/REC-SVG-20010904/DTD/svg10.dtd">
<svg version="1.0" xmlns="http://www.w3.org/2000/svg"
 width="1080.000000pt" height="1080.000000pt" viewBox="0 0 1080.000000 1080.000000"
 preserveAspectRatio="xMidYMid meet">
<metadata>
Created by potrace 1.14, written by Peter Selinger 2001-2017
</metadata>
<g transform="translate(0.000000,1080.000000) scale(0.100000,-0.100000)"
fill="#000000" stroke="none">
<path d="M5250 8688 c-164 -9 -471 -32 -630 -48 -186 -17 -366 -30 -458 -31
-52 -1 -164 -12 -250 -24 -87 -12 -242 -32 -347 -45 -104 -12 -217 -31 -250
-41 -33 -10 -87 -22 -120 -25 -33 -4 -76 -13 -95 -21 -19 -7 -68 -18 -108 -24
-67 -9 -263 -62 -382 -103 -25 -9 -94 -32 -155 -52 -60 -20 -135 -51 -165 -69
-30 -18 -73 -36 -95 -40 -94 -17 -158 -60 -303 -203 -77 -75 -146 -148 -152
-162 -7 -14 -32 -54 -55 -90 -44 -67 -123 -261 -150 -365 -8 -32 -15 -83 -15
-112 0 -89 33 -217 65 -253 8 -9 18 -58 24 -120 5 -58 23 -186 41 -285 17 -99
36 -207 41 -240 5 -33 13 -82 19 -110 10 -49 27 -157 35 -225 4 -38 27 -175
51 -310 8 -47 26 -148 40 -225 14 -77 29 -178 34 -225 5 -47 16 -141 25 -210
8 -69 22 -188 30 -265 19 -176 43 -348 56 -400 15 -57 27 -138 33 -225 3 -41
10 -94 16 -116 11 -49 38 -287 50 -459 5 -66 14 -138 19 -160 5 -22 12 -63 15
-91 7 -73 41 -167 81 -223 19 -27 35 -53 35 -58 0 -5 -25 -8 -57 -5 -68 4
-152 -28 -204 -78 -17 -16 -39 -32 -49 -35 -10 -3 -29 -23 -44 -45 -25 -38
-25 -40 -10 -89 8 -28 24 -57 36 -65 25 -18 151 -68 228 -90 89 -27 258 -89
410 -151 30 -12 71 -26 90 -30 19 -4 105 -41 190 -84 206 -102 210 -103 550
-226 149 -53 266 -75 460 -86 96 -5 189 -12 205 -15 17 -3 142 2 278 10 137 9
289 16 338 16 88 0 118 8 148 38 10 10 26 12 50 8 256 -43 306 -49 477 -50
120 -1 189 3 205 11 35 17 104 39 193 63 l80 21 43 -48 c50 -55 98 -131 89
-140 -3 -4 -19 2 -34 13 -31 23 -149 54 -204 54 -101 0 -121 -36 -116 -204 3
-117 4 -125 40 -197 31 -61 47 -81 94 -114 32 -22 71 -52 88 -66 17 -15 77
-52 134 -83 56 -31 113 -63 126 -71 63 -41 295 -70 360 -45 14 5 70 21 123 35
96 26 200 74 216 101 4 7 13 19 20 26 25 28 127 246 127 274 0 8 11 60 25 114
23 90 24 109 17 212 -8 111 -9 114 -49 173 -23 33 -40 61 -39 63 2 1 126 4
277 6 268 3 276 3 394 34 66 17 133 35 148 41 16 6 47 11 69 11 37 0 47 -6 86
-47 67 -72 77 -100 77 -228 0 -103 2 -114 33 -178 18 -38 40 -92 49 -120 47
-150 233 -300 404 -328 95 -15 258 5 389 48 58 19 112 41 120 48 8 7 34 22 56
33 75 38 104 81 222 332 80 170 86 191 87 295 0 102 -13 148 -55 195 -27 30
-35 33 -87 34 -69 0 -129 -27 -186 -85 -21 -22 -42 -39 -47 -39 -5 0 -11 15
-15 33 -3 17 -11 46 -18 62 -14 38 -93 142 -117 155 -30 16 -33 41 -7 69 36
39 56 100 46 137 -7 24 -20 37 -53 53 -25 11 -47 25 -51 31 -4 6 2 50 13 98
11 48 23 119 27 157 4 39 9 84 12 100 14 92 21 513 15 880 -5 231 -8 443 -8
471 0 61 -21 165 -44 220 -21 49 -92 121 -129 129 -14 3 -34 17 -44 31 -16 21
-16 25 -3 30 22 8 20 46 -3 76 -36 45 -96 77 -231 124 -74 25 -140 50 -146 55
-7 5 -49 21 -95 34 -93 27 -222 88 -211 100 4 4 -4 4 -17 0 -13 -4 -21 -3 -18
1 3 5 -8 9 -24 10 -34 1 -69 29 -69 55 0 31 -24 73 -58 103 -30 26 -32 31 -18
42 19 14 11 45 -10 37 -11 -4 -12 -9 -4 -18 18 -22 -5 -26 -51 -9 -87 31 -169
51 -201 48 -18 -2 -42 0 -53 3 -17 6 -14 8 15 16 19 5 57 11 83 14 26 3 46 10
45 15 -5 14 -138 14 -166 -1 -18 -10 -22 -9 -22 4 0 9 6 26 14 38 24 36 32
330 13 437 -18 96 -27 294 -32 650 -6 438 -38 554 -216 780 -15 19 -44 80 -64
135 -21 55 -57 143 -80 195 -23 52 -46 106 -50 120 -4 14 -10 27 -14 30 -3 3
-35 43 -70 90 -109 145 -200 219 -301 249 -42 12 -199 79 -245 103 -11 6 -47
25 -80 42 -33 17 -62 34 -65 38 -9 12 -89 39 -159 54 -35 7 -70 19 -78 26 -16
13 -65 22 -208 38 -102 11 -164 11 -385 -2z m-1097 -185 c-13 -2 -35 -2 -50 0
-16 2 -5 4 22 4 28 0 40 -2 28 -4z m2027 -93 c0 -5 -10 -10 -22 -10 -19 0 -20
2 -8 10 19 13 30 13 30 0z m-2130 -880 c0 -5 -4 -10 -8 -10 -5 0 -14 -11 -20
-25 -7 -14 -17 -22 -25 -20 -7 3 -62 -1 -121 -10 -60 -8 -112 -12 -117 -9 -13
8 -11 27 5 49 11 15 32 20 97 26 136 10 189 10 189 -1z m430 -710 c0 -6 -8
-13 -17 -16 -10 -3 -26 -10 -36 -15 -11 -6 -21 -8 -24 -5 -3 3 -14 1 -25 -5
-16 -9 -19 -7 -16 8 5 27 118 59 118 33z m943 -1024 c13 -9 70 -21 127 -28 78
-9 110 -17 129 -33 14 -12 52 -36 83 -54 31 -17 77 -55 102 -84 283 -324 267
-301 325 -492 11 -38 32 -82 46 -97 14 -15 25 -30 25 -34 0 -4 -44 -4 -97 -1
-54 3 -120 1 -148 -4 -27 -4 -95 -16 -150 -25 -263 -43 -565 -143 -565 -186 0
-25 75 -25 103 0 14 12 21 14 24 5 4 -10 11 -10 32 1 15 8 60 21 101 30 41 9
125 27 185 40 248 56 485 71 591 37 32 -11 79 -22 104 -26 25 -4 80 -17 122
-31 71 -22 108 -23 108 -4 0 16 -39 38 -110 61 -41 13 -88 33 -105 44 -34 23
-45 62 -21 71 9 3 25 22 37 41 17 27 27 34 45 30 30 -5 37 0 63 51 12 23 29
42 37 42 12 0 15 6 10 23 -6 25 44 133 82 176 13 14 35 41 50 59 23 29 38 35
102 48 41 8 87 14 102 14 15 0 45 9 67 21 49 25 123 33 311 34 162 0 182 -6
253 -73 39 -38 45 -52 25 -52 -7 -1 -22 -20 -33 -42 -14 -29 -38 -54 -78 -81
-41 -28 -67 -55 -89 -93 -16 -30 -50 -76 -75 -104 l-45 -50 7 -73 c4 -39 14
-88 22 -108 12 -31 12 -39 -2 -65 -19 -36 -19 -54 -1 -54 7 0 44 -21 82 -46
38 -26 88 -55 111 -66 24 -10 47 -28 53 -38 10 -18 8 -19 -16 -10 -14 6 -44
21 -67 34 -23 13 -73 36 -112 51 -82 32 -96 42 -75 55 11 7 7 10 -16 10 -26 0
-33 -5 -38 -25 -10 -41 11 -65 92 -102 151 -68 251 -104 437 -154 91 -25 123
-43 193 -107 40 -37 72 -70 72 -74 0 -16 53 -84 75 -95 21 -12 43 -44 104
-158 11 -22 41 -94 66 -160 58 -155 65 -167 98 -178 22 -7 31 -6 40 7 11 14
12 14 14 -6 4 -53 15 -118 30 -188 33 -151 15 -298 -53 -416 -13 -23 -34 -74
-48 -114 -19 -57 -35 -83 -76 -125 -50 -51 -52 -52 -100 -47 -41 4 -49 2 -54
-15 -3 -11 -21 -34 -38 -52 l-32 -32 -16 21 c-14 19 -20 21 -38 11 -23 -12
-48 -6 -50 12 -9 69 -16 80 -81 128 -36 27 -85 59 -108 71 -39 21 -46 21 -90
10 -58 -16 -105 -50 -140 -103 -35 -54 -30 -130 14 -192 17 -23 37 -58 46 -78
8 -20 20 -40 26 -43 20 -13 12 -28 -10 -21 -12 4 -50 7 -85 7 -48 0 -71 -6
-93 -21 -16 -12 -40 -21 -54 -21 -14 0 -38 -5 -54 -11 -15 -6 -82 -12 -148
-14 -66 -1 -138 -7 -160 -13 -62 -16 -197 -33 -345 -43 -74 -4 -173 -13 -220
-19 -47 -5 -113 -7 -146 -4 -60 6 -62 7 -68 37 -12 60 -51 104 -123 139 -57
27 -79 32 -140 33 -63 0 -76 -3 -115 -30 -23 -17 -58 -53 -76 -80 -35 -52 -38
-83 -17 -181 7 -31 5 -32 -51 -58 -44 -20 -66 -25 -88 -19 -17 4 -148 7 -290
8 -198 0 -260 3 -263 13 -3 6 -14 12 -26 12 -18 0 -19 -2 -7 -10 35 -23 -46
-8 -153 27 -110 36 -114 38 -187 112 -41 41 -104 101 -140 134 -123 112 -140
132 -179 212 -55 112 -91 269 -91 399 0 39 -5 87 -10 106 -5 20 -12 85 -14
145 -2 61 -11 148 -19 195 -20 112 -54 333 -61 390 -2 25 -14 90 -25 144 -12
56 -19 113 -15 131 5 27 0 39 -26 69 -40 45 -190 158 -293 221 -71 43 -77 49
-63 64 9 10 12 22 7 30 -7 11 -14 10 -39 -4 -29 -18 -31 -17 -64 1 -18 11 -82
39 -143 63 -60 24 -119 47 -130 52 -41 18 -121 39 -150 39 -29 0 -101 24 -139
46 -14 9 -17 18 -12 37 5 20 23 34 79 60 87 42 163 55 203 34 16 -8 71 -29
123 -46 71 -25 96 -30 102 -20 5 9 11 8 24 -4 9 -10 27 -17 40 -17 30 0 111
-91 119 -134 13 -69 79 -136 134 -136 22 0 23 3 16 45 -8 53 -1 56 57 19 23
-14 58 -32 78 -39 20 -7 80 -34 133 -59 54 -25 105 -46 115 -46 22 0 53 29 53
51 0 39 -116 107 -349 205 -68 29 -130 59 -137 66 -20 20 -30 261 -13 329 7
30 12 62 10 71 -4 32 71 187 92 188 4 0 22 14 40 31 18 17 57 43 87 58 30 14
75 40 100 57 46 32 293 154 311 154 5 0 31 11 57 24 26 13 62 27 81 31 18 4
54 17 80 28 40 19 73 22 256 28 274 9 398 4 428 -15z m-3436 -333 c-3 -10 -5
-4 -5 12 0 17 2 24 5 18 2 -7 2 -21 0 -30z m11 -60 c2 -21 9 -44 16 -53 24
-28 29 -54 37 -200 5 -103 14 -164 29 -210 17 -54 20 -78 14 -142 -7 -80 -24
-98 -24 -26 0 44 -13 132 -37 243 -8 39 -21 133 -29 210 -7 77 -16 157 -20
178 -3 20 -2 37 3 37 5 0 10 -17 11 -37z m162 -1068 c0 -5 -5 -3 -10 5 -5 8
-10 20 -10 25 0 6 5 3 10 -5 5 -8 10 -19 10 -25z m7 -67 c-3 -7 -5 -2 -5 12 0
14 2 19 5 13 2 -7 2 -19 0 -25z m0 -75 c-3 -10 -5 -4 -5 12 0 17 2 24 5 18 2
-7 2 -21 0 -30z m22 -103 c5 -36 13 -92 16 -125 4 -33 11 -87 16 -120 12 -77
12 -142 0 -150 -6 -3 -10 27 -10 73 0 43 -7 112 -15 153 -14 73 -30 246 -21
238 2 -3 8 -34 14 -69z m974 -234 c8 -20 -9 -40 -27 -33 -16 6 -22 38 -10 50
8 8 32 -2 37 -17z m-936 -213 c-3 -10 -5 -4 -5 12 0 17 2 24 5 18 2 -7 2 -21
0 -30z m908 -43 c3 -6 -1 -7 -9 -4 -18 7 -21 14 -7 14 6 0 13 -4 16 -10z
m-319 -105 c-23 -17 -36 -19 -36 -6 0 5 8 12 18 14 32 9 37 6 18 -8z m-516
-322 c7 -27 21 -57 31 -69 11 -11 19 -28 19 -37 0 -8 18 -26 40 -38 22 -12 38
-25 35 -27 -9 -10 17 -42 34 -42 10 0 18 -6 18 -14 0 -25 -38 -4 -93 53 -60
61 -88 106 -99 161 -3 19 -9 43 -12 54 -3 10 -1 16 5 13 5 -4 15 -28 22 -54z
m231 -260 c16 -10 29 -21 29 -25 0 -4 6 -8 13 -8 18 0 80 -40 73 -47 -3 -3
-14 1 -23 9 -10 8 -32 20 -48 27 -32 12 -96 60 -82 61 5 0 22 -8 38 -17z
m-328 -131 c34 -19 46 -42 23 -42 -20 0 -159 51 -171 63 -17 17 116 -2 148
-21z m5589 -22 c76 -23 171 -82 213 -132 86 -101 165 -231 150 -246 -3 -3 -20
1 -38 10 -31 15 -35 15 -58 -3 -13 -10 -29 -19 -34 -19 -6 0 -22 -13 -37 -30
-30 -35 -58 -39 -58 -10 0 43 -25 110 -42 116 -10 3 -18 12 -18 20 0 8 -17 33
-37 55 -21 23 -47 57 -58 75 -11 18 -37 60 -58 94 -30 49 -35 65 -26 76 15 18
25 18 101 -6z m693 -150 c-3 -5 -12 -10 -18 -10 -7 0 -6 4 3 10 19 12 23 12
15 0z m-5291 -65 c11 -8 17 -17 14 -20 -6 -7 -78 21 -78 29 0 12 46 5 64 -9z
m156 -68 c41 -17 77 -33 80 -36 3 -4 29 -17 58 -30 29 -14 58 -31 64 -38 19
-23 -41 -15 -87 12 -23 13 -69 34 -101 46 -33 12 -79 38 -104 56 -42 32 -43
34 -15 28 17 -4 64 -21 105 -38z m5175 -17 c3 -5 -5 -25 -18 -42 -14 -18 -35
-54 -47 -80 -12 -27 -28 -48 -35 -48 -10 0 -12 -10 -8 -34 8 -49 -12 -54 -55
-14 -21 20 -56 46 -80 59 -47 26 -60 53 -45 102 8 31 11 32 78 40 39 4 95 11
125 16 79 12 78 12 85 1z m203 -20 c13 -11 43 -60 68 -110 47 -95 78 -126 117
-116 13 3 51 24 85 47 48 32 73 43 105 43 38 1 43 -2 59 -36 25 -52 11 -159
-29 -226 -15 -26 -34 -60 -41 -77 -7 -16 -35 -54 -61 -85 -26 -30 -60 -74 -74
-97 -32 -51 -80 -84 -179 -125 -147 -60 -304 -75 -388 -37 -68 30 -170 97
-218 143 -62 59 -102 167 -102 278 0 75 17 168 35 198 5 7 17 3 38 -13 43 -32
85 -53 124 -60 18 -4 51 -20 74 -37 48 -34 73 -37 110 -12 48 32 65 57 113
162 49 107 99 178 126 179 8 0 25 -8 38 -19z m-2598 -34 c51 -34 51 -55 -2
-117 -27 -32 -56 -86 -84 -157 -23 -59 -46 -107 -51 -106 -12 1 -76 129 -97
194 -10 30 -23 65 -27 78 -6 15 -5 38 3 64 10 33 20 45 52 60 58 27 152 20
206 -16z m-2416 -112 c3 -8 3 -14 0 -14 -7 0 -34 27 -34 34 0 11 29 -6 34 -20z
m2850 -72 c14 -24 -41 -54 -84 -46 -38 8 -34 25 11 41 41 14 66 16 73 5z
m-296 -56 c6 -14 24 -33 39 -42 15 -10 39 -28 53 -40 44 -39 123 -76 149 -69
23 6 107 56 161 96 82 61 100 58 146 -23 27 -49 29 -60 28 -153 -1 -121 -19
-176 -101 -315 -69 -119 -124 -178 -173 -186 -19 -3 -48 -14 -65 -23 -16 -10
-71 -26 -121 -36 l-91 -18 -141 45 c-129 42 -147 51 -224 111 -140 110 -164
145 -175 262 l-6 64 49 -4 c27 -2 57 -6 67 -10 10 -4 43 -5 74 -3 51 4 60 9
95 48 47 51 72 99 99 185 13 43 31 75 55 99 42 42 66 46 82 12z"/>
<path d="M3790 7490 l-35 -7 32 -2 c17 0 39 -4 47 -7 12 -5 15 -2 10 10 -3 9
-9 15 -13 15 -3 -1 -22 -5 -41 -9z"/>
<path d="M5386 5588 c-21 -29 -20 -40 3 -67 35 -41 151 -50 197 -16 16 12 16
14 -7 43 -36 45 -71 62 -127 62 -41 0 -54 -4 -66 -22z"/>
<path d="M4720 5462 c-36 -16 -90 -68 -90 -87 0 -31 37 -85 58 -85 27 0 105
72 119 109 10 28 9 35 -8 52 -19 19 -51 23 -79 11z"/>
<path d="M5012 5460 c-19 -4 -46 -20 -61 -34 -15 -14 -31 -26 -37 -26 -28 0
-88 -69 -126 -143 -33 -67 -40 -92 -40 -136 0 -63 19 -95 78 -129 48 -28 101
-24 180 13 83 39 362 101 515 114 185 16 244 72 189 180 -26 52 -68 101 -87
101 -8 0 -60 14 -116 32 -100 32 -100 32 -191 19 -155 -22 -183 -22 -219 -1
-35 22 -36 22 -85 10z m501 -105 c99 -35 133 -54 168 -99 25 -32 17 -49 -32
-72 -33 -14 -68 -18 -197 -18 -125 -1 -163 -4 -187 -17 -16 -9 -57 -22 -90
-29 -33 -6 -104 -27 -158 -46 -54 -19 -108 -34 -120 -34 -30 1 -76 40 -79 67
-4 29 51 111 124 185 86 87 115 96 323 97 146 1 152 0 248 -34z"/>
<path d="M6339 2383 c-13 -16 -12 -17 4 -4 16 13 21 21 13 21 -2 0 -10 -8 -17
-17z"/>
<path d="M7976 2539 c12 -13 20 -16 22 -9 3 7 -2 16 -9 21 -25 16 -32 9 -13
-12z"/>
<path d="M2850 8432 c0 -5 14 -7 30 -4 17 2 30 6 30 8 0 2 -13 4 -30 4 -16 0
-30 -4 -30 -8z"/>
<path d="M7306 5714 c-10 -25 -7 -29 19 -30 14 -1 25 3 25 10 0 7 3 7 8 1 10
-14 82 -14 82 0 0 34 -51 45 -88 19 -20 -14 -22 -14 -22 0 0 21 -16 21 -24 0z"/>
<path d="M7470 5710 c0 -5 5 -10 11 -10 6 0 9 -9 6 -20 -4 -16 0 -20 18 -20
36 0 39 27 5 45 -34 18 -40 18 -40 5z"/>
<path d="M7555 5670 c3 -5 15 -10 27 -10 11 0 29 -11 40 -25 11 -14 29 -30 41
-37 l22 -11 -20 24 c-36 44 -70 68 -93 69 -13 0 -20 -4 -17 -10z"/>
<path d="M7674 5560 c-28 -11 -40 -30 -20 -30 9 0 16 5 16 10 0 6 5 10 11 10
5 0 9 -8 7 -17 -3 -24 24 -83 38 -83 7 0 15 -11 18 -24 3 -14 15 -28 26 -31
11 -4 18 -12 14 -18 -3 -7 1 -5 8 5 8 9 27 18 43 20 61 7 34 67 -30 68 -20 0
-26 3 -17 9 11 6 10 10 -3 15 -11 4 -23 0 -31 -11 -12 -17 -13 -16 -15 7 -1
14 -1 29 0 34 1 5 -5 4 -13 -3 -13 -11 -15 -10 -11 7 5 27 -15 42 -41 32z"/>
<path d="M7720 5423 c0 -13 5 -23 10 -23 13 0 13 11 0 30 -8 12 -10 11 -10 -7z"/>
<path d="M8590 4950 c20 -13 33 -13 25 0 -3 6 -14 10 -23 10 -15 0 -15 -2 -2
-10z"/>
<path d="M8700 4885 c7 -8 17 -15 23 -15 6 0 20 -8 31 -17 19 -17 20 -17 7 -1
-7 10 -27 24 -43 33 -26 13 -28 13 -18 0z"/>
<path d="M8861 4404 c0 -11 3 -14 6 -6 3 7 2 16 -1 19 -3 4 -6 -2 -5 -13z"/>
<path d="M8871 4354 c0 -11 3 -14 6 -6 3 7 2 16 -1 19 -3 4 -6 -2 -5 -13z"/>
<path d="M8873 4280 c0 -25 2 -35 4 -22 2 12 2 32 0 45 -2 12 -4 2 -4 -23z"/>
<path d="M8781 4053 c0 -28 2 -54 7 -57 4 -2 6 14 4 37 -5 68 -10 76 -11 20z"/>
<path d="M8782 3955 c0 -16 2 -22 5 -12 2 9 2 23 0 30 -3 6 -5 -1 -5 -18z"/>
<path d="M8813 3725 c0 -27 2 -38 4 -22 2 15 2 37 0 50 -2 12 -4 0 -4 -28z"/>
<path d="M8788 3451 c-5 -18 -8 -43 -8 -55 1 -19 2 -19 11 -3 6 9 9 34 7 55
l-3 37 -7 -34z"/>
<path d="M8771 3264 c0 -11 3 -14 6 -6 3 7 2 16 -1 19 -3 4 -6 -2 -5 -13z"/>
<path d="M8761 3214 c0 -11 3 -14 6 -6 3 7 2 16 -1 19 -3 4 -6 -2 -5 -13z"/>
<path d="M8751 3149 c0 -15 -3 -42 -6 -60 l-5 -34 11 34 c5 18 8 45 6 60 l-4
26 -2 -26z"/>
<path d="M8730 2951 c0 -12 5 -21 10 -21 6 0 10 6 10 14 0 8 -4 18 -10 21 -5
3 -10 -3 -10 -14z"/>
</g>
</svg>
